<?xml version="1.0" encoding="UTF-8"?>
 <!DOCTYPE svg PUBLIC "-//W3C//DTD SVG 1.1//EN"
   "http://www.w3.org/Graphics/SVG/1.1/DTD/svg11.dtd">
 <svg xmlns="http://www.w3.org/2000/svg" version="1.1"
   xmlns:xlink="http://www.w3.org/1999/xlink" width="367" height="122">
  <path d="M 9.467869,79.476335 C 9.467869,64.991011 14.103714,59.784476 19.879845,59.784476 25.655977,59.784476 30.291822,64.990236 30.291822,79.476335 30.291822,93.962434 25.655977,99.168969 19.879845,99.168969 14.103714,99.168969 9.467869,93.96166 9.467869,79.476335 z M 0.0541007,79.476335 C 0.0541007,98.413557 9.538908,106.56194 19.879845,106.56194 30.220783,106.56194 39.70559,98.413557 39.70559,79.476335 39.70559,60.539889 30.220783,52.391506 19.879845,52.391506 9.538908,52.391506 0.0541007,60.539114 0.0541007,79.476335 z" />
  <path d="M 51.685551,86.492761 C 51.685551,79.17417 53.46885,73.213772 58.674472,73.213772 63.809055,73.213772 65.163923,77.740824 65.163923,86.718998 65.163923,94.490061 63.452395,99.545514 58.531662,99.545514 53.683432,99.545514 51.685551,94.037588 51.685551,86.492761 z M 42.843024,122.10329 51.685551,122.10329 51.685551,100.22422 51.828362,100.22422 C 53.11219,103.24277 56.036508,106.41086 61.313169,106.41086 69.229991,106.41086 74.007182,99.017112 74.007182,86.342453 74.007182,75.552839 70.227467,66.347654 61.099319,66.347654 55.393495,66.347654 52.755531,69.66837 51.328891,72.987536 L 51.115042,72.987536 C 51.115042,70.347079 50.972964,68.083166 50.830154,66.951984 L 42.557404,66.951984 C 42.771253,68.386106 42.843024,70.799552 42.843024,73.590317 L 42.843024,122.10329 z" />
  <path d="M 84.989668,83.022513 C 84.989668,77.891906 86.915045,72.686146 91.55089,72.686146 95.544454,72.686146 97.683681,76.156395 97.683681,83.022513 L 84.989668,83.022513 z M 103.95928,96.526963 C 102.31879,97.809227 99.751136,99.545514 94.331665,99.545514 87.485554,99.545514 84.989668,95.546864 84.989668,88.907757 L 106.24205,88.907757 106.24205,87.096316 C 106.24205,71.252799 99.46698,66.348429 91.55089,66.348429 82.208161,66.348429 76.432029,75.327378 76.432029,86.946783 76.432029,97.433458 81.566612,106.41163 93.405228,106.41163 98.682621,106.41163 102.53338,104.75127 104.38771,103.92148 L 103.95928,96.526963 z" />
  <path d="M 108.80898,73.364855 C 108.80898,70.950634 108.73794,68.687496 108.52336,66.952759 L 116.79611,66.952759 C 116.86714,68.913732 117.08099,70.950634 117.08099,72.912382 L 117.29484,72.912382 117.22307,72.912382 C 118.5069,70.573315 121.00352,66.347654 126.9935,66.347654 135.33729,66.347654 137.83318,72.912382 137.83318,80.759374 L 137.83318,105.8073 128.98992,105.8073 128.98992,82.494111 C 128.98992,76.533713 127.56401,74.044339 123.92637,74.044339 119.29053,74.044339 117.65077,78.193296 117.65077,83.17282 L 117.65077,105.8073 108.80751,105.8073 108.80751,73.364855 108.80898,73.364855 z" />
  <path d="M 150.24303,79.476335 C 150.24303,64.991011 154.87888,59.784476 160.65501,59.784476 166.43187,59.784476 171.06699,64.990236 171.06699,79.476335 171.06699,93.962434 166.43187,99.168969 160.65501,99.168969 154.87815,99.168969 150.24303,93.96166 150.24303,79.476335 z M 140.82926,79.476335 C 140.82926,98.413557 150.31407,106.56194 160.65501,106.56194 170.99595,106.56194 180.48149,98.413557 180.48149,79.476335 180.48149,60.539889 170.99595,52.391506 160.65501,52.391506 150.31407,52.391506 140.82926,60.539114 140.82926,79.476335 z" fill="#06348c" />
  <path d="M 186.32792,73.817328 180.1944,73.817328 180.1944,66.952759 186.32792,66.952759 186.32792,59.029838 C 186.32792,53.446759 188.82381,48.316153 196.88198,48.316153 199.23652,48.316153 201.51782,48.844554 203.22935,49.221098 L 202.87342,56.011288 C 201.80344,55.709123 200.66243,55.407733 199.37933,55.407733 196.81094,55.407733 195.17118,57.293552 195.17118,60.236174 L 195.17118,66.95121 201.87522,66.95121 201.87522,73.815778 195.17118,73.815778 195.17118,105.80575 186.32866,105.80575 186.32866,73.817328 186.32792,73.817328 z" fill="#06348c" />
  <path d="M 209.36141,73.817328 203.22862,73.817328 203.22862,66.952759 209.36141,66.952759 209.36141,59.029838 C 209.36141,53.446759 211.8573,48.316153 219.9162,48.316153 222.27,48.316153 224.55204,48.844554 226.26357,49.221098 L 225.90691,56.011288 C 224.83766,55.709123 223.69591,55.407733 222.41282,55.407733 219.84589,55.407733 218.20613,57.293552 218.20613,60.236174 L 218.20613,66.95121 224.9087,66.95121 224.9087,73.815778 218.20613,73.815778 218.20613,105.80575 209.36214,105.80575 209.36214,73.817328 209.36141,73.817328 z" fill="#06348c" />
  <path d="M 230.39994,66.951984 239.24247,66.951984 239.24247,105.80653 230.39994,105.80653 230.39994,66.951984 z" fill="#06348c" />
  <path d="M 268.76614,104.82643 C 266.69942,105.65622 263.63229,106.41086 260.06642,106.41086 247.94219,106.41086 242.80907,97.432683 242.80907,86.416833 242.80907,75.326603 248.22854,66.347654 260.56663,66.347654 263.3474,66.347654 266.62838,67.253375 268.2696,67.932858 L 267.76866,75.326603 C 266.20068,74.496811 263.98968,73.440009 261.56483,73.440009 254.86153,73.440009 251.93648,78.193296 251.93648,86.492761 251.93648,93.736198 255.21746,99.318502 261.99253,99.318502 264.13249,99.318502 267.05608,98.262475 268.26887,97.432683 L 268.76614,104.82643 z" fill="#06348c" />
  <path d="M 277.46732,83.022513 C 277.46732,77.891906 279.3927,72.686146 284.02854,72.686146 288.02211,72.686146 290.1606,76.156395 290.1606,83.022513 L 277.46732,83.022513 z M 296.43694,96.526963 C 294.79645,97.809227 292.23025,99.545514 286.80932,99.545514 279.96321,99.545514 277.46732,95.546864 277.46732,88.907757 L 298.72044,88.907757 298.72044,87.096316 C 298.72044,71.252799 291.94463,66.348429 284.02854,66.348429 274.68508,66.348429 268.90895,75.327378 268.90895,86.946783 268.90895,97.433458 274.0428,106.41163 285.88215,106.41163 291.15881,106.41163 295.01103,104.75127 296.86463,103.92148 L 296.43694,96.526963 z" fill="#06348c" />
  <path d="M 307.60837,102.48349 C 307.60837,105.39977 307.00344,106.21561 304.13551,106.21561 301.21486,106.21561 300.607,105.39899 300.607,102.48349 300.607,99.626091 301.21486,98.691704 304.13551,98.691704 307.05763,98.691704 307.60837,99.508324 307.60837,102.48349 z" fill="#06348c" />
  <path d="M 239.8247,54.945962 C 239.8247,59.084848 238.96491,60.243922 234.89664,60.243922 230.75001,60.243922 229.88729,59.084848 229.88729,54.945962 229.88729,50.890753 230.75001,49.565876 234.89664,49.565876 239.04327,49.565876 239.8247,50.724175 239.8247,54.945962 z" fill="#06348c" />
  <path d="M 312.51592,90.935361 C 312.51592,83.469562 314.55408,79.620445 318.96582,79.620445 323.37537,79.620445 325.41573,83.469562 325.41573,90.935361 325.41573,98.400386 323.3761,102.25028 318.96582,102.25028 314.55481,102.2495 312.51592,98.399611 312.51592,90.935361 z M 307.66403,90.935361 C 307.66403,100.26684 311.52357,106.21639 318.96582,106.21639 326.40808,106.21639 330.26762,100.26684 330.26762,90.935361 330.26762,81.603887 326.40808,75.654336 318.96582,75.654336 311.52357,75.654336 307.66403,81.603887 307.66403,90.935361 z" fill="#06348c" />
  <path d="M 333.41018,82.478616 C 333.41018,80.320073 333.24247,78.16308 333.18828,76.063421 L 337.65421,76.063421 337.82046,80.728383 337.93031,80.728383 C 339.4192,77.112476 341.78986,75.654336 345.9233,75.654336 L 345.9233,80.495174 C 345.37257,80.378956 344.76617,80.319298 344.15978,80.319298 340.57633,80.319298 338.0409,83.585779 338.0409,90.059858 L 338.0409,105.80653 333.41091,105.80653 333.41091,82.478616 333.41018,82.478616 z" fill="#06348c" />
  <path d="M 350.22299,90.935361 C 350.22299,83.469562 352.15276,79.620445 356.39826,79.620445 360.64376,79.620445 362.5728,83.469562 362.5728,90.935361 362.5728,98.400386 360.64302,102.25028 356.39753,102.25028 352.15203,102.25028 350.22299,98.399611 350.22299,90.935361 z M 367.20278,81.48612 C 367.20278,79.677779 367.36903,77.812104 367.42469,76.062646 L 362.95729,76.062646 362.7925,80.378182 362.68119,80.378182 C 361.13957,77.520011 358.6034,75.653561 355.79113,75.653561 349.50601,75.653561 345.59227,80.6695 345.59227,90.934586 345.59227,101.1989 349.50601,106.21561 355.29459,106.21561 358.38296,106.21561 360.86347,104.58237 362.68119,101.1989 L 362.7925,101.1989 362.7925,105.86541 C 362.7925,110.99679 360.58663,114.55459 354.90791,114.55459 352.3732,114.55459 349.17498,113.38854 347.18955,111.98774 L 346.96911,116.94557 C 349.00874,117.8203 352.81335,118.75313 355.18401,118.75313 361.35927,118.75313 367.20205,115.31233 367.20205,107.08879 L 367.20205,81.48612 367.20278,81.48612 z" fill="#06348c" />
  <path d="M 39.247132,37.158517 C 63.735819,29.530789 81.789982,31.490212 94.933665,43.002698 108.48015,28.67388 135.56725,25.093612 144.03261,26.881809 119.2876,14.593766 98.456322,22.919574 93.594909,29.285957 79.938574,21.449812 47.712493,24.62177 39.247132,37.158517 z" />
  <path d="M 102.21333,5.6186917 C 119.74972,3.3292109 134.75653,5.2413728 144.4691,13.237123 155.54752,6.3857259 176.4308,6.5406823 182.80893,8.2002653 160.26979,-0.51293308 149.37226,2.546681 143.92276,4.9825956 129.47108,-0.83291804 115.1212,-2.7915669 102.21333,5.6186917 z" />
 </svg>